<?xml version="1.0" encoding="UTF-8"?>
<svg width="736px" height="849px" viewBox="0 0 736 849" version="1.1" xmlns="http://www.w3.org/2000/svg" xmlns:xlink="http://www.w3.org/1999/xlink">
    <!-- Generator: Sketch 48.2 (47327) - http://www.bohemiancoding.com/sketch -->
    <title>stationary_hex_logo</title>
    <desc>Created with Sketch.</desc>
    <defs>
        <linearGradient x1="24.5689727%" y1="12.2119193%" x2="100%" y2="74.7315407%" id="linearGradient-1">
            <stop stop-color="#807DFB" offset="0%"></stop>
            <stop stop-color="#1BD5E7" stop-opacity="0.699416893" offset="100%"></stop>
        </linearGradient>
        <linearGradient x1="50%" y1="4.42953109%" x2="50%" y2="99.7238375%" id="linearGradient-2">
            <stop stop-color="#E4FF3C" offset="0%"></stop>
            <stop stop-color="#C7F349" stop-opacity="0" offset="100%"></stop>
        </linearGradient>
        <linearGradient x1="74.0006592%" y1="12.0535292%" x2="0%" y2="75.1168777%" id="linearGradient-3">
            <stop stop-color="#B3A9FD" stop-opacity="0.702162591" offset="0%"></stop>
            <stop stop-color="#49A4FF" stop-opacity="0.696501359" offset="100%"></stop>
        </linearGradient>
        <path d="M706.337612,195.45 L735.637612,212.35 L735.637612,636.65 L706.337612,653.55 L425.137612,815.95 L368.237612,848.75 L311.337612,815.95 L30.1376121,653.55 L0.837612102,636.65 L0.837612102,212.35 L30.1376121,195.45 L307.937612,35.05 L368.237612,0.25 L428.537612,35.05 L706.337612,195.45 Z M725.944024,632.072543 L725.944024,218.927457 L368.237612,12.4078125 L10.5312,218.927457 L10.5312,632.072543 L368.237612,838.592187 L725.944024,632.072543 Z" id="path-4"></path>
        <filter x="-0.1%" y="-0.1%" width="100.3%" height="100.2%" filterUnits="objectBoundingBox" id="filter-5">
            <feGaussianBlur stdDeviation="1" in="SourceAlpha" result="shadowBlurInner1"></feGaussianBlur>
            <feOffset dx="0" dy="0" in="shadowBlurInner1" result="shadowOffsetInner1"></feOffset>
            <feComposite in="shadowOffsetInner1" in2="SourceAlpha" operator="arithmetic" k2="-1" k3="1" result="shadowInnerInner1"></feComposite>
            <feColorMatrix values="0 0 0 0 0.243330145   0 0 0 0 0.243330145   0 0 0 0 0.243330145  0 0 0 0.5 0" type="matrix" in="shadowInnerInner1"></feColorMatrix>
        </filter>
        <linearGradient x1="100%" y1="100%" x2="71.8599449%" y2="81.3191348%" id="linearGradient-6">
            <stop stop-color="#C8C8C8" stop-opacity="0" offset="0%"></stop>
            <stop stop-color="#B0B0B0" stop-opacity="0.496914408" offset="68.3852838%"></stop>
            <stop stop-color="#979797" offset="100%"></stop>
        </linearGradient>
        <linearGradient x1="50%" y1="0%" x2="50%" y2="100%" id="linearGradient-7">
            <stop stop-color="#B0FF45" stop-opacity="0.64453125" offset="0%"></stop>
            <stop stop-color="#D6FFAA" stop-opacity="0" offset="100%"></stop>
        </linearGradient>
        <linearGradient x1="50%" y1="0%" x2="50%" y2="100%" id="linearGradient-8">
            <stop stop-color="#FFFFFF" stop-opacity="0.64453125" offset="0%"></stop>
            <stop stop-color="#D9FFAF" stop-opacity="0" offset="100%"></stop>
        </linearGradient>
        <linearGradient x1="50%" y1="0%" x2="50%" y2="100%" id="linearGradient-9">
            <stop stop-color="#D19797" stop-opacity="0.5" offset="0%"></stop>
            <stop stop-color="#F8C4C4" stop-opacity="0.5" offset="100%"></stop>
        </linearGradient>
        <linearGradient x1="100%" y1="2.55016815%" x2="70.2206193%" y2="2.55016815%" id="linearGradient-10">
            <stop stop-color="#C8C8C8" stop-opacity="0" offset="0%"></stop>
            <stop stop-color="#979797" offset="100%"></stop>
        </linearGradient>
    </defs>
    <g id="stationary" stroke="none" stroke-width="1" fill="none" fill-rule="evenodd">
        <g id="stationary_hex_logo">
            <polygon id="hex_inside_3" fill-opacity="0.4" fill="url(#linearGradient-1)" points="725.944024 632.072543 368.237612 838.592187 10.5312 632.072543 10.5312 218.927457 368.237612 12.4078125 725.944024 218.927457"></polygon>
            <polygon id="hex_inside_2" fill-opacity="0.3" fill="url(#linearGradient-2)" points="725.944024 632.072543 368.237612 838.592187 10.5312 632.072543 10.5312 218.927457 368.237612 12.4078125 725.944024 218.927457"></polygon>
            <polygon id="hex_inside_1" fill-opacity="0.1" fill="url(#linearGradient-3)" points="725.944024 632.072543 368.237612 838.592187 10.5312 632.072543 10.5312 218.927457 368.237612 12.4078125 725.944024 218.927457"></polygon>
            <g id="hex_outline">
                <use fill-opacity="0.5" fill="#AAAAAA" fill-rule="evenodd" xlink:href="#path-4"></use>
                <use fill="black" fill-opacity="1" filter="url(#filter-5)" xlink:href="#path-4"></use>
            </g>
            <path d="M87.132,623.749944 L99.804,623.749944 C99.676,628.613944 102.236,635.397944 113.884,635.397944 C118.876,635.397944 122.588,634.501944 125.148,631.301944 C126.428,629.637944 127.196,627.461944 127.196,625.285944 C127.196,619.013944 122.716,617.861944 113.116,615.685944 C99.676,612.613944 88.412,609.925944 88.412,596.485944 C88.412,584.709944 98.652,577.029944 113.5,577.029944 C121.564,577.029944 132.828,579.333944 136.668,587.013944 C138.332,590.597944 138.332,593.669944 138.332,596.357944 L126.044,596.357944 C126.428,586.629944 117.98,585.861944 113.628,585.861944 C111.836,585.861944 100.572,585.861944 100.572,595.077944 C100.572,600.965944 106.332,602.373944 109.66,603.269944 C127.452,607.493944 131.292,608.517944 135.132,612.101944 C138.716,615.429944 139.996,619.909944 139.996,624.005944 C139.996,631.173944 136.028,637.317944 131.292,640.261944 C125.66,643.717944 118.876,644.613944 112.22,644.613944 C99.164,644.613944 87.004,639.237944 87.132,623.749944 Z M146.036,587.141944 L146.036,578.309944 L157.428,578.309944 L157.428,564.869944 L169.332,561.029944 L169.332,578.309944 L183.668,578.309944 L183.668,587.141944 L169.332,587.141944 L169.332,625.669944 C169.332,628.869944 169.332,634.245944 177.908,634.245944 C180.34,634.245944 182.644,633.861944 183.668,633.605944 L183.668,642.949944 C181.492,643.333944 178.036,643.717944 173.684,643.717944 C162.676,643.717944 157.428,640.517944 157.428,630.021944 L157.428,587.141944 L146.036,587.141944 Z M247.564,642.821944 L236.684,642.821944 C235.788,639.621944 235.532,636.549944 235.532,633.221944 C229.772,643.845944 221.068,644.869944 215.692,644.869944 C200.972,644.869944 193.036,636.549944 193.036,625.925944 C193.036,620.805944 194.828,612.613944 204.3,607.109944 C211.212,603.269944 221.452,602.885944 226.572,602.885944 C229.644,602.885944 231.564,603.013944 235.276,603.269944 C235.276,595.333944 235.276,591.877944 232.972,589.061944 C230.54,585.861944 225.292,584.837944 221.836,584.837944 C209.676,584.837944 209.036,593.157944 208.908,595.717944 L196.876,595.717944 C197.26,592.389944 197.644,587.909944 201.356,583.557944 C206.22,578.181944 215.308,576.645944 222.092,576.645944 C231.436,576.645944 241.42,579.589944 244.876,586.117944 C246.924,589.957944 247.052,593.029944 247.052,595.973944 L246.54,626.693944 C246.54,627.717944 246.668,636.293944 247.564,642.821944 Z M235.276,611.589944 C233.1,611.333944 231.308,611.205944 228.364,611.205944 C223.5,611.205944 205.196,611.205944 205.196,624.261944 C205.196,628.357944 207.756,635.397944 218.508,635.397944 C224.652,635.397944 229.26,632.965944 232.204,628.485944 C234.892,624.133944 235.02,620.549944 235.276,611.589944 Z M256.828,587.141944 L256.828,578.309944 L268.22,578.309944 L268.22,564.869944 L280.124,561.029944 L280.124,578.309944 L294.46,578.309944 L294.46,587.141944 L280.124,587.141944 L280.124,625.669944 C280.124,628.869944 280.124,634.245944 288.7,634.245944 C291.132,634.245944 293.436,633.861944 294.46,633.605944 L294.46,642.949944 C292.284,643.333944 288.828,643.717944 284.476,643.717944 C273.468,643.717944 268.22,640.517944 268.22,630.021944 L268.22,587.141944 L256.828,587.141944 Z M308.156,563.845944 L308.156,550.661944 L322.62,550.661944 L322.62,563.845944 L308.156,563.845944 Z M309.436,642.821944 L309.436,578.565944 L321.468,578.565944 L321.468,642.821944 L309.436,642.821944 Z M331.156,611.461944 C331.156,595.589944 338.58,576.901944 363.796,576.901944 C389.524,576.901944 395.284,597.125944 395.284,610.565944 C395.284,629.381944 384.66,644.997944 362.772,644.997944 C341.524,644.997944 331.156,630.277944 331.156,611.461944 Z M343.7,610.693944 C343.7,623.877944 349.332,636.037944 363.028,636.037944 C372.116,636.037944 382.484,629.509944 382.484,610.181944 C382.484,594.181944 375.06,585.733944 363.796,585.733944 C356.116,585.733944 343.7,590.597944 343.7,610.693944 Z M404.584,642.821944 L404.584,585.989944 L404.456,578.565944 L416.488,578.565944 L416.616,588.933944 C418.024,586.245944 422.632,577.285944 437.224,577.285944 C442.984,577.285944 460.52,579.461944 460.52,599.173944 L460.52,642.821944 L448.232,642.821944 L448.232,601.989944 C448.232,597.765944 447.72,593.925944 444.776,590.981944 C441.704,588.037944 437.48,586.629944 433.384,586.629944 C424.68,586.629944 416.616,592.901944 416.616,605.829944 L416.616,642.821944 L404.584,642.821944 Z M523.556,642.821944 L512.676,642.821944 C511.78,639.621944 511.524,636.549944 511.524,633.221944 C505.764,643.845944 497.06,644.869944 491.684,644.869944 C476.964,644.869944 469.028,636.549944 469.028,625.925944 C469.028,620.805944 470.82,612.613944 480.292,607.109944 C487.204,603.269944 497.444,602.885944 502.564,602.885944 C505.636,602.885944 507.556,603.013944 511.268,603.269944 C511.268,595.333944 511.268,591.877944 508.964,589.061944 C506.532,585.861944 501.284,584.837944 497.828,584.837944 C485.668,584.837944 485.028,593.157944 484.9,595.717944 L472.868,595.717944 C473.252,592.389944 473.636,587.909944 477.348,583.557944 C482.212,578.181944 491.3,576.645944 498.084,576.645944 C507.428,576.645944 517.412,579.589944 520.868,586.117944 C522.916,589.957944 523.044,593.029944 523.044,595.973944 L522.532,626.693944 C522.532,627.717944 522.66,636.293944 523.556,642.821944 Z M511.268,611.589944 C509.092,611.333944 507.3,611.205944 504.356,611.205944 C499.492,611.205944 481.188,611.205944 481.188,624.261944 C481.188,628.357944 483.748,635.397944 494.5,635.397944 C500.644,635.397944 505.252,632.965944 508.196,628.485944 C510.884,624.133944 511.012,620.549944 511.268,611.589944 Z M535.316,642.821944 L535.316,591.621944 C535.316,587.269944 535.06,582.789944 534.676,578.565944 L546.836,578.565944 L547.092,590.981944 C549.396,582.021944 557.076,579.077944 562.452,578.309944 C566.036,577.797944 568.724,577.925944 570.772,578.053944 L570.772,589.829944 C570.132,589.573944 569.364,589.445944 568.468,589.317944 C567.572,589.189944 566.42,589.189944 565.012,589.189944 C550.804,589.189944 547.476,597.637944 547.476,608.645944 L547.476,642.821944 L535.316,642.821944 Z M643.94,578.565944 L615.396,643.205944 L606.18,667.141944 L593.764,667.141944 L603.492,642.565944 L576.74,578.565944 L590.308,578.565944 L610.404,629.253944 L630.884,578.565944 L643.94,578.565944 Z" id="stationary" fill="#4A4A4A"></path>
            <g id="met_2" transform="translate(185.419557, 156.000000)">
                <rect id="connecting_piece" fill-opacity="0.5" fill="#7EAFE8" x="397" y="237.658721" width="24" height="94.5219561"></rect>
                <rect id="outer_piece" fill-opacity="0.500905797" fill="#F89A48" x="391" y="87" width="33.8325761" height="51" rx="4"></rect>
                <rect id="inter_piece" fill-opacity="0.500905797" fill="#F8B548" x="395.117986" y="138.044301" width="26.0318676" height="8.36251861" rx="1"></rect>
                <rect id="top_piece" fill-opacity="0.500905797" fill="#563C14" x="392.069951" y="146.406819" width="32.1279364" height="12.9685533" rx="1"></rect>
                <rect id="mid_piece" fill-opacity="0.500905797" fill="#563C14" x="384.06664" y="158.098496" width="48.1345598" height="25.304667" rx="1"></rect>
                <path d="M386.06664,182.191365 L430.201199,182.191365 C431.305769,182.191365 432.201199,183.086796 432.201199,184.191365 L432.201199,235.658721 C432.201199,236.76329 431.305769,237.658721 430.201199,237.658721 L396.739496,237.658721 L384.06664,225.268237 L384.06664,184.191365 C384.06664,183.086796 384.96207,182.191365 386.06664,182.191365 Z" id="bottom_piece" fill-opacity="0.6" fill="#563C14"></path>
                <circle id="inner_oval" fill-opacity="0.499971694" fill="#69AF1D" cx="339.783932" cy="153.820787" r="23.6144386"></circle>
                <circle id="outer_oval" fill-opacity="0.64453125" fill="#D6FFAA" cx="339.783932" cy="153.820787" r="26"></circle>
                <path d="M433.844748,176.750526 C446.508494,176.750526 456.774488,166.484532 456.774488,153.820787 C456.774488,141.157042 446.508494,130.891048 433.844748,130.891048 C421.181003,130.891048 420.026533,139.940463 415.324574,153.820787 C420.248102,166.719932 421.181003,176.750526 433.844748,176.750526 Z" id="inner_oval_2" fill-opacity="0.64453125" fill="#69AF1D"></path>
                <path d="M433.549531,179.820787 C447.908935,179.820787 459.549531,168.180191 459.549531,153.820787 C459.549531,139.461384 447.908935,127.820787 433.549531,127.820787 C419.190128,127.820787 417.881076,138.081906 412.549531,153.820787 C418.132312,168.44711 419.190128,179.820787 433.549531,179.820787 Z" id="outer_oval_2" fill-opacity="0.64453125" fill="#D6FFAA"></path>
                <path d="M458.328369,170.067049 C465.342432,170.067049 471.028453,162.79335 471.028453,153.820787 C471.028453,144.848224 465.342432,137.574525 458.328369,137.574525 C451.314307,137.574525 450.674881,143.986249 448.070609,153.820787 C450.797601,162.960136 451.314307,170.067049 458.328369,170.067049 Z" id="inner_oval_3" fill-opacity="0.64453125" fill="#69AF1D"></path>
                <path d="M458.164857,172.242401 C466.118093,172.242401 472.565465,163.994764 472.565465,153.820787 C472.565465,143.64681 466.118093,135.399173 458.164857,135.399173 C450.211621,135.399173 449.486577,142.669418 446.533597,153.820787 C449.62573,164.183882 450.211621,172.242401 458.164857,172.242401 Z" id="outer_oval_3" fill-opacity="0.64453125" fill="#D6FFAA"></path>
                <path d="M318.073497,260.166774 C318.073497,262.69563 318.073497,267.36378 318.073497,274.171224 C318.792272,302.518899 328.765351,312.48893 336.462499,320.186079 C344.159647,327.883227 382.355712,366.079291 392.943651,376.66723" id="wire" stroke="url(#linearGradient-6)" transform="translate(355.508574, 318.417002) rotate(45.000000) translate(-355.508574, -318.417002) "></path>
                <path d="M8.65526614,0.363464768 L43.498849,0.363464768 C47.5783365,0.363464768 51.0044093,3.43307094 51.4508091,7.4880611 L60.8382607,92.7614537 L49.8721438,177.661344 C49.3569089,181.650303 45.9601512,184.636535 41.9380549,184.636535 L8.65526614,184.636535 C4.23698814,184.636535 0.655266143,181.054813 0.655266143,176.636535 L0.655266143,8.36346477 C0.655266143,3.94518677 4.23698814,0.363464768 8.65526614,0.363464768 Z" id="flap" fill-opacity="0.5" fill="#D1C30A"></path>
                <rect id="large_pole" fill-opacity="0.595759737" fill="#D70B0B" x="0.655266143" y="89.6272637" width="456.119222" height="6.87850421"></rect>
                <rect id="pole_piece_1" fill-opacity="0.556584013" fill="#4A90E2" x="311.962411" y="151.479559" width="80.2242711" height="4.0894661"></rect>
                <rect id="pole_piece_2" fill-opacity="0.556584013" fill="#4A90E2" x="409.006367" y="151.479559" width="50.7092004" height="4.0894661"></rect>
                <rect id="pole_piece_3" fill-opacity="0.556584013" fill="#4A90E2" x="424.006367" y="151.479559" width="48.7807126" height="4.0894661"></rect>
                <path d="M448.774418,82.0664915 L492.23402,82.0665317 C492.589512,82.0665319 492.938579,82.1612847 493.245279,82.3410334 C501.290263,87.0559879 505.312755,90.6645288 505.312755,93.1666559 C505.312755,95.6696142 501.28759,99.2154252 493.237261,103.804089 L493.237253,103.804075 C492.93551,103.976067 492.594178,104.066516 492.246859,104.066516 L448.774418,104.066516 C447.669848,104.066516 446.774418,103.171085 446.774418,102.066516 L446.774416,84.0664904 C446.774416,82.9619209 447.669847,82.0664904 448.774416,82.0664904 C448.774417,82.0664904 448.774417,82.0664904 448.774418,82.0664904 Z" id="balance" fill="#B5AC26"></path>
                <polygon id="base_left" fill-opacity="0.5" fill="#3B2072" points="396.489338 308 421.114059 308 421.114059 389.947391 383 389.947391 383 332.845978"></polygon>
                <polygon id="base_right" fill-opacity="0.5" fill="#3B2072" transform="translate(416.057029, 348.973695) scale(-1, 1) translate(-416.057029, -348.973695) " points="410.489338 308 435.114059 308 435.114059 389.947391 397 389.947391 397 332.845978"></polygon>
                <g id="connector" transform="translate(385.387244, 236.500000) rotate(-315.000000) translate(-385.387244, -236.500000) translate(379.387244, 215.000000)" fill-opacity="0.597231658">
                    <polygon id="top_connect" fill="#BBB12E" points="4.16623429 0.313512935 7.78612045 0.313512935 8.68520807 6.30743039 3.26714667 6.30743039"></polygon>
                    <rect id="bottom_rec" fill="#5B5822" transform="translate(5.976177, 28.601391) rotate(-90.000000) translate(-5.976177, -28.601391) " x="-7.94051188" y="23.0046796" width="27.8333785" height="11.1934229"></rect>
                    <rect id="top_line" fill="#5F5C34" transform="translate(5.976177, 15.256734) rotate(-90.000000) translate(-5.976177, -15.256734) " x="5.40414541" y="9.66002233" width="1.14406393" height="11.1934229"></rect>
                    <rect id="bottom_line" fill="#5F5C34" transform="translate(5.976177, 41.946048) rotate(-90.000000) translate(-5.976177, -41.946048) " x="5.40414541" y="36.3493369" width="1.14406393" height="11.1934229"></rect>
                    <rect id="top_rec" fill="#BBB12E" transform="translate(5.976177, 11.075948) rotate(-90.000000) translate(-5.976177, -11.075948) " x="1.20765943" y="8.29859855" width="9.53703588" height="5.55469958"></rect>
                </g>
            </g>
            <g id="met_3" transform="translate(94.441867, 265.000000)">
                <rect id="outer_piece" fill-opacity="0.500905797" fill="#F89A48" x="22.1843117" y="17" width="33.8300018" height="51" rx="1"></rect>
                <rect id="inter_piece" fill-opacity="0.500905797" fill="#F8B548" x="26.084666" y="55.0443006" width="26.0318676" height="8.36251861" rx="1"></rect>
                <rect id="upper_bridge" fill-opacity="0.500905797" fill="#563C14" x="23.0366315" y="63.4068193" width="32.1279364" height="12.9685533" rx="1"></rect>
                <rect id="upper_bulkhead" fill-opacity="0.500905797" fill="#563C14" x="15.0333198" y="75.0984959" width="48.1345598" height="25.304667" rx="1"></rect>
                <rect id="outer_piece-copy" fill-opacity="0.500905797" fill="#F89A48" transform="translate(39.100600, 220.448995) rotate(-180.000000) translate(-39.100600, -220.448995) " x="22.1843117" y="194.948995" width="33.8325761" height="51" rx="4"></rect>
                <rect id="inter_piece-copy" fill-opacity="0.500905797" fill="#F8B548" transform="translate(39.100600, 203.723435) rotate(-180.000000) translate(-39.100600, -203.723435) " x="26.084666" y="199.542176" width="26.0318676" height="8.36251861" rx="1"></rect>
                <rect id="lower_bridge" fill-opacity="0.500905797" fill="#563C14" transform="translate(39.100600, 193.057899) rotate(-180.000000) translate(-39.100600, -193.057899) " x="23.0366315" y="186.573622" width="32.1279364" height="12.9685533" rx="1"></rect>
                <rect id="lower_bulkhead" fill-opacity="0.500905797" fill="#563C14" transform="translate(39.100600, 175.198165) rotate(-180.000000) translate(-39.100600, -175.198165) " x="15.0333198" y="162.545832" width="48.1345598" height="25.304667" rx="1"></rect>
                <path d="M17.0333198,90.6415205 L61.1678796,90.6415205 C62.2724491,90.6415205 63.1678796,91.536951 63.1678796,92.6415205 L63.1678796,144.108876 C63.1678796,145.213445 62.2724491,146.108876 61.1678796,146.108876 L27.7061758,146.108876 L15.0333198,133.718392 L15.0333198,92.6415205 C15.0333198,91.536951 15.9287503,90.6415205 17.0333198,90.6415205 Z" id="lower_middle_component" fill-opacity="0.6" fill="#166271"></path>
                <path d="M17.0333198,117.011128 L61.1678796,117.011128 C62.2724491,117.011128 63.1678796,117.906558 63.1678796,119.011128 L63.1678796,170.478483 C63.1678796,171.583053 62.2724491,172.478483 61.1678796,172.478483 L27.7061758,172.478483 L15.0333198,160.087999 L15.0333198,119.011128 C15.0333198,117.906558 15.9287503,117.011128 17.0333198,117.011128 Z" id="upper_middle_component" fill-opacity="0.6" fill="#166271" transform="translate(39.100600, 144.744806) scale(1, -1) translate(-39.100600, -144.744806) "></path>
                <circle id="sphere_outer_top" fill="url(#linearGradient-7)" cx="39.1018869" cy="17.1576394" r="16.9150009"></circle>
                <circle id="sphere_top" fill="url(#linearGradient-8)" cx="39.1018869" cy="17.1576394" r="15.6180128"></circle>
                <circle id="sphere_outer_bottom" fill="url(#linearGradient-7)" transform="translate(39.101887, 244.791016) rotate(180.000000) translate(-39.101887, -244.791016) " cx="39.1018869" cy="244.791016" r="16.9150009"></circle>
                <circle id="sphere_bottom" fill="url(#linearGradient-8)" transform="translate(39.101887, 244.791016) rotate(180.000000) translate(-39.101887, -244.791016) " cx="39.1018869" cy="244.791016" r="15.6180128"></circle>
                <path d="M104.745749,117.739606 C104.745749,119.892825 104.745749,123.867568 104.745749,129.663832 C105.464523,153.800737 115.437602,162.289818 123.134751,168.843631 C127.971825,172.962205 144.853437,187.336219 159.358853,199.686997" id="wire" stroke="url(#linearGradient-6)" transform="translate(132.052301, 158.713302) scale(-1, 1) rotate(-270.000000) translate(-132.052301, -158.713302) "></path>
                <polygon id="left_assembly_2" fill-opacity="0.2" fill="#3B2072" points="14.4745914 90.6415205 39.0993126 90.6415205 39.0993126 172.588911 0.985253697 172.588911 0.985253697 115.487498"></polygon>
                <polygon id="left_assembly_1" fill-opacity="0.2" fill="#3B2072" transform="translate(20.042283, 131.615216) scale(1, -1) translate(-20.042283, -131.615216) " points="14.4745914 90.6415205 39.0993126 90.6415205 39.0993126 172.588911 0.985253697 172.588911 0.985253697 115.487498"></polygon>
                <g id="connector" transform="translate(70.290741, 131.560973) rotate(-90.000000) translate(-70.290741, -131.560973) translate(64.290741, 110.060973)" fill-opacity="0.597231658">
                    <polygon id="top_connect" fill="#BBB12E" points="4.16623429 0.313512935 7.78612045 0.313512935 8.68520807 6.30743039 3.26714667 6.30743039"></polygon>
                    <rect id="bottom_rec" fill="#5B5822" transform="translate(5.976177, 28.601391) rotate(-90.000000) translate(-5.976177, -28.601391) " x="-7.94051188" y="23.0046796" width="27.8333785" height="11.1934229"></rect>
                    <rect id="top_line" fill="#5F5C34" transform="translate(5.976177, 15.256734) rotate(-90.000000) translate(-5.976177, -15.256734) " x="5.40414541" y="9.66002233" width="1.14406393" height="11.1934229"></rect>
                    <rect id="bottom_line" fill="#5F5C34" transform="translate(5.976177, 41.946048) rotate(-90.000000) translate(-5.976177, -41.946048) " x="5.40414541" y="36.3493369" width="1.14406393" height="11.1934229"></rect>
                    <rect id="top_rec" fill="#BBB12E" transform="translate(5.976177, 11.075948) rotate(-90.000000) translate(-5.976177, -11.075948) " x="1.20765943" y="8.29859855" width="9.53703588" height="5.55469958"></rect>
                </g>
            </g>
            <g id="met_1" transform="translate(264.627744, 294.093707)">
                <path d="M10.2647509,121.748739 C24.5377419,105.564791 54.9485586,88.6164556 103.498951,88.6164556 C149.516681,88.6164556 183.14082,106.523925 196.495711,121.748739 L198.802446,121.748739 L198.802446,129.825306 L8.19545636,129.825306 L8.19545636,121.748739 L10.2647509,121.748739 Z" id="plate_6" fill-opacity="0.4" fill="#3621AC"></path>
                <path d="M10.2647509,104.582789 C24.5377419,88.3988408 54.9485586,71.4505054 103.498951,71.4505054 C149.516681,71.4505054 183.14082,89.3579751 196.495711,104.582789 L198.802446,104.582789 L198.802446,112.659356 L8.19545636,112.659356 L8.19545636,104.582789 L10.2647509,104.582789 Z" id="plate_5" fill-opacity="0.4" fill="#3621AC"></path>
                <path d="M10.2647509,87.4168384 C24.5377419,71.2328907 54.9485586,54.2845553 103.498951,54.2845553 C149.516681,54.2845553 183.14082,72.1920249 196.495711,87.4168384 L198.802446,87.4168384 L198.802446,95.4934058 L8.19545636,95.4934058 L8.19545636,87.4168384 L10.2647509,87.4168384 Z" id="plate_4" fill-opacity="0.4" fill="#3621AC"></path>
                <path d="M10.2647509,70.2508883 C24.5377419,54.0669405 54.9485586,37.1186051 103.498951,37.1186051 C149.516681,37.1186051 183.14082,55.0260748 196.495711,70.2508883 L198.802446,70.2508883 L198.802446,78.3274556 L8.19545636,78.3274556 L8.19545636,70.2508883 L10.2647509,70.2508883 Z" id="plate_3" fill-opacity="0.4" fill="#3621AC"></path>
                <path d="M10.2647509,53.0849382 C24.5377419,36.9009904 54.9485586,19.952655 103.498951,19.952655 C149.516681,19.952655 183.14082,37.8601247 196.495711,53.0849382 L198.802446,53.0849382 L198.802446,61.1615055 L8.19545636,61.1615055 L8.19545636,53.0849382 L10.2647509,53.0849382 Z" id="plate_2" fill-opacity="0.4" fill="#3621AC"></path>
                <path d="M2.24723992,36.103868 C17.7476116,18.5282101 50.773553,0.122432444 103.498951,0.122432444 C153.473895,0.122432444 189.989482,19.5698235 204.492804,36.103868 L206.997902,36.103868 L206.997902,44.8749656 L0,44.8749656 L0,36.103868 L2.24723992,36.103868 Z" id="top_plate" fill-opacity="0.4" fill="#3621AC"></path>
                <path d="M103.498951,29.4304029 C139.609724,29.4304029 168.88329,29.1352906 168.88329,22.2794329 C168.88329,15.4235752 139.609724,6.29335082 103.498951,6.29335082 C67.3881776,6.29335082 38.1146118,15.4235752 38.1146118,22.2794329 C38.1146118,29.1352906 67.3881776,29.4304029 103.498951,29.4304029 Z" id="top_plate_reflec" fill-opacity="0.4" fill="#3621AC"></path>
                <rect id="cylinder" fill-opacity="0.5" fill="#9B9B9B" x="55.2579145" y="121.054209" width="96.482073" height="35.0843902"></rect>
                <rect id="core" fill-opacity="0.5" fill="#9B9B9B" x="87.6420943" y="129.825306" width="31.7137134" height="35.0843902"></rect>
                <polygon id="union" fill="url(#linearGradient-9)" points="92.9047528 149.877478 114.093149 149.877478 119.355808 184.961868 87.6420943 184.961868"></polygon>
                <rect id="main_shaft" fill-opacity="0.50206635" fill="#F8E71C" x="95.4341582" y="129.825306" width="16.1295856" height="35.0843902"></rect>
                <rect id="vert_column_right" fill-opacity="0.50206635" fill="#5CF81C" x="136.524708" y="129.825306" width="9.95262131" height="35.0843902"></rect>
                <rect id="vert_column_left" fill-opacity="0.50206635" fill="#5CF81C" x="60.520573" y="129.825306" width="9.95262131" height="35.0843902"></rect>
                <rect id="top_flange" fill-opacity="0.5" fill="#9B9B9B" x="55.2579145" y="150.196294" width="96.482073" height="9.85699702"></rect>
                <rect id="bottom_flange" fill-opacity="0.5" fill="#9B71A7" x="78.9887068" y="175.104871" width="49.0204884" height="9.85699702"></rect>
                <g id="connector" transform="translate(98.236292, 172.282690)" fill-opacity="0.597231658">
                    <polygon id="top_connect" fill="#BBB12E" points="3.66881152 0.276081417 6.85650553 0.276081417 7.64824761 5.55436197 2.87706944 5.55436197"></polygon>
                    <rect id="bottom_rec" fill="#5B5822" transform="translate(5.262659, 25.186561) rotate(-90.000000) translate(-5.262659, -25.186561) " x="-6.99246357" y="20.2580623" width="24.5102442" height="9.85699702"></rect>
                    <rect id="top_line" fill="#5F5C34" transform="translate(5.262659, 13.435174) rotate(-90.000000) translate(-5.262659, -13.435174) " x="4.75892366" y="8.50667504" width="1.00746973" height="9.85699702"></rect>
                    <rect id="bottom_line" fill="#5F5C34" transform="translate(5.262659, 36.937948) rotate(-90.000000) translate(-5.262659, -36.937948) " x="4.75892366" y="32.0094495" width="1.00746973" height="9.85699702"></rect>
                    <rect id="top_rec" fill="#BBB12E" transform="translate(5.262659, 9.753548) rotate(-90.000000) translate(-5.262659, -9.753548) " x="1.06347232" y="7.30779689" width="8.39837242" height="4.89150259"></rect>
                </g>
                <path d="M103.543231,209.568078 C103.543231,211.795004 103.543231,215.905805 103.543231,221.900483 C103.543231,225.684605 105.185733,232.402241 114.089066,232.446318 C138.047419,232.564926 139.858468,180.172578 166.362805,180.172578 C177.426037,180.172578 194.106521,180.172578 187.70129,180.172578" id="wire" stroke="url(#linearGradient-10)"></path>
            </g>
        </g>
    </g>
</svg>